PathFileType	4	(X/Y/Z)	C:\Users\WrightLab\Desktop\Jo\P5V41.trc
DataRate	CameraRate	NumFrames	NumMarkers	Units	OrigDataRate	OrigDataStartFrame	OrigNumFrames
100.00	100.00	      11	19	mm	100.00	571	      1140
Frame#	Time	Headset_Front			Headset_Back			Headset_Left			Headset_Right			Left_Shoulder			Right_Shoulder			Sternum			C7			Left Elbow			Right Elbow			Left Wrist			Right Wrist			Left ASIS			Right ASIS			S2			Left Knee			Right Knee			Left Ankle			Right Ankle			
		X1	Y1	Z1	X2	Y2	Z2	X3	Y3	Z3	X4	Y4	Z4	X5	Y5	Z5	X6	Y6	Z6	X7	Y7	Z7	X8	Y8	Z8	X9	Y9	Z9	X10	Y10	Z10	X11	Y11	Z11	X12	Y12	Z12	X13	Y13	Z13	X14	Y14	Z14	X15	Y15	Z15	X16	Y16	Z16	X17	Y17	Z17	X18	Y18	Z18	X19	Y19	Z19	

571	5.700	-180.63837	1394.21350	230.01981	-275.78665	1483.93640	154.60350							93.76022	1529.04468	46.29824	-283.94116	1397.27026	32.63761	-71.86068	1290.52759	83.37036	-118.08593	1527.24109	-96.70998	221.00056	1224.16492	25.53871	-302.50143	1118.67590	87.83412	186.16481	995.39520	121.68592	-220.24507	1021.53040	296.94168	58.42168	945.86298	103.05285	-222.64085	932.44116	44.95414	12.26003	992.51617	-173.73976	81.69994	510.25012	145.20201	-287.57440	520.33142	48.95237	153.56908	103.84253	-0.50911	-341.19272	112.74831	-8.91344	
572	5.710	-183.55084	1393.55286	233.34865	-279.49387	1482.81311	159.13356							88.91251	1528.53503	46.34132	-288.23172	1395.93982	36.13877	-75.54279	1289.74622	85.39860	-124.56324	1526.73169	-94.44370	215.69604	1223.87695	26.85600	-306.10809	1117.12109	91.13139	182.84720	992.50037	119.24352	-221.57721	1020.72479	298.86517	55.31322	945.71954	103.54676	-226.48422	931.66492	49.13695	4.36447	992.60339	-172.87822	79.26109	509.91147	144.98149	-289.97803	516.79742	50.35833	152.85921	104.15019	-1.02464	-341.29865	112.05354	-9.62845	
573	5.720	-186.47807	1392.52490	237.16245	-282.88043	1481.39636	162.98483							84.11176	1528.54834	47.55503	-292.94952	1395.03931	40.12389	-79.95024	1289.52405	87.38959	-130.58073	1526.18152	-91.13246	211.08003	1223.94922	27.67183	-310.11774	1116.31091	94.65788	179.92163	991.81793	119.80450	-223.14407	1020.12714	301.65750	51.41005	944.63672	104.26173	-229.94447	930.35211	52.25302	-4.27521	992.22668	-172.03766	76.89388	509.27863	143.78857	-292.29922	513.58960	51.31781	152.66818	104.46728	-1.03242	-342.01941	110.12724	-8.98771	
574	5.730	-188.21033	1391.87634	240.23581	-286.31396	1480.49890	167.21928							78.76401	1528.42346	48.09349	-298.44620	1394.17139	44.44643	-83.14082	1288.41895	89.25330	-136.85527	1525.73901	-88.39892	205.59869	1223.12744	27.39837	-313.99564	1114.98657	98.16672	176.35706	989.98163	117.23015	-224.44914	1019.00952	303.28690	48.88603	944.36310	104.55073	-234.25130	929.84186	56.12572	-12.08186	991.84509	-170.76692	73.15141	509.54294	142.69075	-294.45343	510.38446	52.21693	152.39301	104.75933	-1.24230	-342.22278	108.37851	-8.60814	
575	5.740	-191.01758	1391.27930	244.25214	-290.35388	1479.12830	172.15582							73.32817	1527.60181	46.93791	-303.15030	1393.12146	48.05909	-87.99440	1288.23816	90.92204	-143.33600	1525.42883	-86.16985	200.65993	1222.62659	27.63095	-318.30298	1114.36597	102.11546	173.45683	989.52002	117.59819	-225.91194	1018.36389	306.42630	44.64936	943.50165	103.45577	-237.66556	928.19269	59.28425	-19.99724	991.79224	-169.79611	69.33150	508.47345	140.69035	-297.11893	507.62814	53.10675	152.04549	105.54526	-1.16493	-341.57675	105.91441	-9.64536	
576	5.750	-193.79613	1390.78784	247.86252	-295.01587	1477.71790	176.37479							68.35369	1526.99377	48.61980	-308.10242	1392.21094	51.96206	-92.66759	1287.30933	92.94387	-150.10263	1525.14282	-84.28139	195.80006	1222.29370	27.73216	-322.66730	1113.63049	105.79783	170.54300	987.00720	115.16700	-227.26407	1017.30609	308.34399	40.98741	942.28009	103.94363	-242.20468	928.02222	62.56247	-27.70023	991.42633	-168.97478	66.40897	507.90933	139.45650	-299.39563	505.43750	53.52845	151.56451	106.23438	-1.14926	-341.69284	104.62448	-9.69045	
577	5.760	-196.50407	1390.05237	251.67809	-298.52676	1477.10046	180.86098							63.11303	1526.73547	50.21276	-313.02481	1391.65869	56.00064	-96.00905	1285.88367	93.74052	-156.22847	1525.37354	-80.25237	191.67888	1222.32947	28.54839	-326.60403	1112.77002	108.63818	168.64523	985.62994	113.85225	-228.93623	1016.46094	310.93756	37.91533	942.28613	103.74577	-246.09091	926.77789	65.40377	-35.89889	991.84570	-167.52065	63.18507	507.42645	138.33243	-301.29611	504.11838	53.68320	151.30240	106.76331	-0.57710	-341.81064	104.41152	-9.50319	
578	5.770	-198.54079	1389.14551	254.45750	-302.57462	1475.87988	185.73827							57.88407	1526.46313	51.00030	-318.25156	1390.91333	60.15166	-101.44204	1286.54126	96.35297	-163.13542	1525.27441	-78.08585	186.70001	1222.75122	27.57129	-330.03928	1111.78174	112.52575	165.44995	984.68140	112.55215	-230.56738	1015.85406	312.78189	33.70503	941.95258	102.62418	-249.92206	926.28595	67.97018	-43.64989	992.07373	-166.88974	60.12680	507.07120	137.24159	-304.15295	503.57681	53.86270	150.87498	107.62100	-0.53720	-341.87292	104.53860	-9.05693	
579	5.780	-200.74036	1388.57776	257.35699	-305.96262	1475.09033	190.23997							52.29700	1526.55127	51.19028	-325.32266	1390.55396	64.90657	-106.70723	1286.80615	98.17963	-169.73520	1525.23132	-74.07267	181.38980	1222.51624	27.24918	-334.03027	1110.99048	116.11029	163.57367	984.53955	112.46207	-231.90933	1014.83508	314.68845	29.71901	941.10266	101.23418	-254.35826	926.03900	70.08191	-51.53437	992.62262	-165.97273	56.24306	506.99121	136.20746	-306.72543	503.81134	53.94691	150.23790	108.79716	-1.30338	-342.23755	104.21524	-8.80439	
580	5.790	-203.12352	1388.09399	260.23462	-309.08841	1473.79053	194.10393							47.22668	1526.98145	51.61462	-329.65948	1390.11646	68.86665	-111.03340	1286.10718	99.57723	-176.19266	1525.40430	-71.88807	176.75775	1223.26550	27.36378	-336.94022	1109.46472	119.88681	161.19011	983.39508	109.85979	-233.76868	1014.37836	316.59036	25.30688	940.97083	100.47875	-258.75616	925.95746	72.11887	-58.82232	993.68451	-165.22794	52.87051	506.00491	134.84265	-311.23511	504.22281	54.13567	149.92926	109.75616	-0.38310	-342.67908	103.66742	-8.48909	
581	5.800	-205.81305	1387.30835	263.21375	-312.32306	1473.14209	198.46970							41.73823	1527.15491	52.02525	-333.94589	1389.09033	73.10208	-115.73936	1286.41565	101.68677	-182.50262	1525.53772	-68.69614	171.89058	1224.22827	26.86306	-340.30563	1108.77319	122.33943	159.02803	983.70990	109.27353	-235.70798	1013.87103	318.57007	21.12539	940.36029	98.92564	-261.77869	925.87048	73.49319	-66.36805	994.16516	-164.49249	49.00719	505.61755	134.04025	-314.41522	504.87268	54.66363	149.12190	110.72417	-0.39781	-343.21930	103.50933	-8.06680	
